<svg aria-hidden="true" style="position:absolute;width:0;height:0" xmlns="http://www.w3.org/2000/svg" overflow="hidden"><defs><symbol id="little-arrow" viewBox="0 0 20 20"><path d="M12.95 10.707l.707-.707L8 4.343 6.586 5.757 10.828 10l-4.242 4.243L8 15.657l4.95-4.95z"/></symbol><symbol id="arrow-right" viewBox="0 0 20 20"><path d="M12.134 17.134l6.25-6.25a1.25 1.25 0 000-1.768l-6.25-6.25a1.25 1.25 0 00-1.768 1.768l4.116 4.116H2.5a1.25 1.25 0 000 2.5h11.982l-4.116 4.116c-.244.244-.366.564-.366.884s.122.64.366.884a1.25 1.25 0 001.768 0z"/></symbol><symbol id="facebook" viewBox="0 0 20 20"><path d="M11.875 3.75H15V0h-3.125A4.38 4.38 0 007.5 4.375V6.25H5V10h2.5v10h3.75V10h3.125L15 6.25h-3.75V4.375c0-.339.286-.625.625-.625z"/></symbol><symbol id="github" viewBox="0 0 20 20"><path d="M10 .247c-5.522 0-10 4.477-10 10 0 4.418 2.865 8.167 6.839 9.489.5.093.683-.217.683-.481 0-.238-.009-1.026-.014-1.862-2.782.605-3.369-1.18-3.369-1.18-.455-1.156-1.11-1.463-1.11-1.463-.907-.621.069-.608.069-.608 1.004.071 1.533 1.031 1.533 1.031.892 1.529 2.339 1.087 2.91.831.09-.646.349-1.087.635-1.337-2.221-.253-4.556-1.11-4.556-4.942 0-1.092.391-1.984 1.03-2.684-.104-.252-.446-1.269.097-2.646 0 0 .84-.269 2.751 1.025a9.576 9.576 0 012.503-.337c.85.004 1.706.115 2.505.337 1.909-1.294 2.747-1.025 2.747-1.025.544 1.378.202 2.395.098 2.646.641.7 1.029 1.592 1.029 2.684 0 3.841-2.339 4.687-4.566 4.934.359.31.678.919.678 1.852 0 1.338-.012 2.415-.012 2.744 0 .266.18.578.687.48A10.002 10.002 0 0020 10.247c0-5.523-4.477-10-10-10z"/></symbol><symbol id="telegram" viewBox="0 0 44 32"><path d="M17.344 21.048l-.676 8.86c.966 0 1.384-.388 1.886-.852l4.526-4.04 9.38 6.414c1.722.894 2.934.422 3.4-1.478L42.016 3.02c.548-2.374-.92-3.302-2.594-2.72L3.228 13.234c-2.47.896-2.434 2.18-.42 2.766l9.252 2.684L33.552 6.132c1.012-.626 1.932-.28 1.176.346l-17.386 14.57z"/></symbol><symbol id="close" viewBox="0 0 32 32"><path stroke-width="2" d="M2.52 2l26.96 28M2 29.48L30 2.52"/></symbol><symbol id="home" viewBox="0 0 35 32"><path d="M34.253 15.613a1.571 1.571 0 00-.129-2.254l-.002-.002L19.349.432A1.828 1.828 0 0018.165 0c-.467 0-.893.174-1.217.46l.002-.002L2.129 14.047a1.564 1.564 0 00-.071 2.251l.373.387c.613.64 1.611.72 2.224.171l1.107-.992v14.523c0 .893.72 1.613 1.613 1.613h5.773c.891 0 1.613-.72 1.613-1.613v-10.16h7.373v10.16c-.013.891.624 1.613 1.515 1.613h6.123a1.61 1.61 0 001.611-1.613v-14.32l.685.603c.376.331 1.168.064 1.765-.595l.421-.461z"/></symbol><symbol id="Burger" viewBox="0 0 46 32"><path stroke-width="2.286" d="M0 2.286h45.714M0 16h45.714M0 29.714h45.714"/></symbol></defs></svg>